<svg xmlns="http://www.w3.org/2000/svg" viewBox="0 0 23.97 34"><g id="Layer_2" data-name="Layer 2"><rect x="14.8" y="11.85" width="0.08" height="0.11" transform="translate(-3.81 8.16) rotate(-27.38)" style="fill:#fab915"/><path d="M10.67,17.4l.42.68.05,0,.67-.65-.46-.68Zm.44.51-.3-.5.52-.54.34.49Z" style="fill:#fab915"/><polygon points="14.69 13 13.86 11.68 13.93 11.61 13.85 11.54 13.73 11.67 14.67 13.17 15.67 12.16 15.59 12.09 14.69 13" style="fill:#fab915"/><polygon points="15.42 12.09 15.34 12.01 14.74 12.64 14.2 11.64 14.15 11.61 14.13 11.62 14.07 11.64 14.72 12.82 15.42 12.09" style="fill:#fab915"/><path d="M9.66,17.34l0,0,1.05,2,2.08-2-1.12-2Zm1.09,1.87-1-1.85,1.88-1.79,1,1.76Z" style="fill:#fab915"/><polygon points="13.53 11.51 13.6 11.59 13.66 11.53 13.63 11.49 13.53 11.51" style="fill:#fab915"/><path d="M9.94,15.53l.05,0,.29-.18-.19-.24-.3.21Zm.18-.24-.15.09,0-.06.13-.09Z" style="fill:#fab915"/><path d="M10.38,17.41,11,18.46l0,0,.05,0,1.06-1.05-.63-1.06Zm.63.91-.5-.89,1-.94.52.86Z" style="fill:#fab915"/><path d="M10.05,17.36,10.87,19l.05-.05,1.57-1.55-.92-1.53Zm.84,1.41-.71-1.39L11.55,16l.81,1.34Z" style="fill:#fab915"/><path d="M11,17.36l0,0,.13.22.26-.24-.13-.27Zm.18.09,0-.07.1-.09,0,.07Z" style="fill:#fab915"/><polygon points="15.19 12.02 15.12 11.94 14.86 12.17 14.6 11.76 14.5 11.81 14.83 12.34 15.19 12.02" style="fill:#fab915"/><path d="M9,18.83l0,0,.4.69.28-.26-.4-.77Zm.45.55-.32-.54.14-.14.3.57Z" style="fill:#fab915"/><path d="M7.22,15.45l-.1-.29-.26.26,0,0,.09.23Zm-.15-.09,0,.05L7,15.49l0,0Z" style="fill:#fab915"/><path d="M9.31,18.13l-.63.64L9.32,20l.74-.62-.7-1.34Zm0,1.73-.54-1.07.53-.53.58,1.13Z" style="fill:#fab915"/><path d="M9.46,17.58l-1.17,1.1.92,1.9,1.28-1.06-1-2Zm-.21,2.83L8.42,18.7l1.06-1,.87,1.79Z" style="fill:#fab915"/><path d="M0,0V34H24V0ZM10.24,14l-.1.09-.09-.14Zm-.34-.08.21.32.26-.2.17.05-.49.41-.38-.6A.9.9,0,0,1,9.9,13.89Zm-.63,0,.46.78-.56.58.43.81.1-.05-.39-.74.55-.59-.47-.81.08,0h.08l.48.76.64-.54.2.05-.71.61-.71.55.4.6.77-.55-.36-.55.73-.62.17,0-.66.57.31.51-1.25,1-.51-1,.48-.54L9.09,14Zm.91,1,.3.45-.6.43-.29-.43ZM9,14l.4.75-.47.54.6,1.18L11,15.33l-.31-.5.65-.57.17,0,.32.5.09-.06-.26-.41h.05l.24.05.22.33-.39.29-.42-.63-.5.47.33.48L9.46,16.76l-.7-1.39.51-.57-.4-.71Zm-1.72-.2h.05l.1.2.15-.18.1,0-.31.3-.18-.33Zm-.19,0,.26.48.44-.44L7.9,14l-.64.58L6.93,14Zm-.45.27.45.73-.53.56L6.9,16l.62-.58-.81-1.3L6.84,14l.4.72L8,14l.09,0-.76.7.38.58-.37.37-.45.41-.5-.69.45-.51-.39-.6A1.35,1.35,0,0,1,6.63,14.15Zm.51.83.24.38-.46.43-.23-.34Zm-.92-.34.13.19-.2.2-.06-.11A2.51,2.51,0,0,1,6.22,14.64Zm11.68-5c-.21.26,0,.21-.26.39a2.67,2.67,0,0,1-1.24.19c-.54-.07-.51.06-.58.17s-.16.42.08,1.44c.07.3.11.48.13.62l-1,.85.77,1.22.6-.46c.06.18.12.37.22.73a7.16,7.16,0,0,1,.31,1.8,10.34,10.34,0,0,1-.09,1.05,9,9,0,0,1-.28,1.72,7.14,7.14,0,0,1-.6,1.37,16.3,16.3,0,0,0-.78,1.44,5.89,5.89,0,0,0-.2,2.09,5.86,5.86,0,0,0,.07,1.34,12.77,12.77,0,0,0,.47,1.5s-.22-.46-.39-.43-.27.49-.27.49a11.53,11.53,0,0,1-.3-1.31c-.08-.47-.05-.57-.16-1.1,0-.22,0-.21-.11-.5A7.82,7.82,0,0,1,14.13,23c0-.66.13-1,0-1.11s-.21.05-.27.13-.15.2,0,1c0,.06,0,0,0,.27.09.54.12.7.17,1s.08.45.14.77c.15.87.11.93.22,1.53.14.83.33,1.38.22,1.43s-.3-.37-.55-.33-.23.33-.32.32a4,4,0,0,1-.13-1.87,2.06,2.06,0,0,0-.06-1.05c-.16-.34-.32-.3-.47-.66s0-.63-.18-1.05c-.13-.23-.21-.22-.37-.53s-.13-.39-.26-.46-.31.05-.57.09A1.87,1.87,0,0,1,10.36,22c-.39-.35-.53-.68-.59-.65s.17.74.19.8a5,5,0,0,0,.38.79c.12.2.13.19.28.44a2.45,2.45,0,0,1,.33.69s-.3-.34-.36-.31.15.36.06.45-.73-.14-.82-.52c-.05-.21.08-.36,0-.58s-.13-.14-.22-.25-.14-.24-.24-.74a2.68,2.68,0,0,0-.28-.93c-.08-.12-.18-.29-.28-.28s-.16.32-.25,1.16a7.43,7.43,0,0,0-.11,1.58c.13.57.46,1.09.33,1.18s-.22-.15-.49-.14-.47.29-.55.24.08-.39.18-.89a5.09,5.09,0,0,0,.05-1.18,5,5,0,0,0-.11-1,5,5,0,0,0-.49-1.3c-.37-.69-.52-.65-.8-1.18a6.36,6.36,0,0,1-.46-1.8,6,6,0,0,1-.17-2,2.78,2.78,0,0,1,.13-.5l.1.15.35-.36-.21-.3.1-.13.34.5-.46.51.62.86.54-.49.44-.43-.38-.59.74-.67.16,0-.73.66.35.59-.35.36-.73.7,1.22,2L9.6,17.18l2-1.89-.33-.48-.09.06.28.4L9.53,17.1,8.17,18.32,7.05,16.46l.68-.64.4-.42-.34-.59.74-.67h.19L8,14.82l.34.58L8,15.84l-.65.71,1,1.38L9.22,17,8.5,15.53l-.76.94.6,1,.54-.51-.46-.87-.34.42.25.4.09-.06-.21-.33.19-.23.34.65-.38.36-.49-.8.61-.74L9.09,17l-.79.78-.84-1.2.59-.65.42-.49-.34-.58.67-.64.33.59-.5.57.79,1.58,1.87-1.6L11,14.86l.34-.33.41.62.57-.41-.22-.33.2.05.16.23-.58.58,1.11,2L15,15.17l-.44-.6-.08.07.38.52L13,17.08l-1-1.79.58-.58-.13-.19a1.18,1.18,0,0,1,.19.11l.1.08-.55.56L13,16.92l1.73-1.73-.36-.51.34-.34.48.71.56-.47-.83-1.22-1.36,1.23-.29.26s0-.07,0-.11l2.65-2.42.06-.06-.07-.08-.07.06-2.6,2.38,0-.17,1.34-1.11-.94-1.57-.75.7s0-.08,0-.12l.59-.6-.36-.48-.09.06.31.41-.46.47a.76.76,0,0,1,0-.15l.3-.3-.31-.43c0-.11,0-.22,0-.32a5.05,5.05,0,0,1,.55-2.1c0-.08.38-.46.27-.76,0-.1-.2-.2-.24-.26A2.91,2.91,0,0,1,13,7.31a3.16,3.16,0,0,1-.31-.76c-.06-.19.11-.78.18-.65.57,1,.87,1.34,1.44,1.29.11,0-.2-.64.62-.63.15,0-.08.54.16.76s.1.12.58.2c.15,0,.32.22.41.29.82.69,1.69.42,1.81.81a3.83,3.83,0,0,0,.06.43c0,.21.19.2.16.3S18.14,9.58,17.9,9.6Zm-1.71,3.6,0,0a.63.63,0,0,1-.08-.11l0,0-.3.23.27.48.26-.19c0,.05,0,.1,0,.15l-.34.25-.42-.64.55-.47c0,.1,0,.22.08.38Zm0,0v0c0,.06,0,.11,0,.16l-.2.14-.16-.29.14-.11,0,.05,0,0h.11Zm-.79,0,.55.81.4-.29a.56.56,0,0,0,0,.12l-.54.41-.66-1,.85-.75,0,.17ZM12.8,14.78l.12.12-.37.33.61,1.11,1.17-1.2L14,14.66l.75-.67.46.62.09-.07-.54-.7-.91.8.32.48-1,1-.49-.9L13,15l.06.07-.17.15.39.63.79-.61-.4-.58,1.23-1.12.7,1-.38.33-.49-.72-.5.5.36.51L13,16.74l-.72-1.45Zm0-3.28.17.25-.17.16C12.8,11.78,12.79,11.64,12.8,11.5Zm.55,3.94.05,0,.28-.22-.21-.26-.19.16V15l.3-.28.33.48-.61.48L13,15.22l.1-.09.08.08Zm0-.25.14-.11.07.08-.15.12Zm0-2.16-.32.26.32.56.47-.52-.38-.65-.52.44a1,1,0,0,0,0-.17l.61-.53.56.88-.89.75-.12-.19c0-.18-.08-.39-.12-.62l.47-.39.28.47-.32.35-.2-.35.14-.11.08.16.09,0Zm-.2,1.24,0-.12,0,.06,1.06-.89-.69-1.06-.65.56a1.49,1.49,0,0,1,0-.21l.71-.67.82,1.37-1.23,1Z" style="fill:#fab915"/><path d="M8.73,14.4l-.43.43.28.39.05,0L9,14.79Zm-.13.66-.16-.22.27-.27.15.21Z" style="fill:#fab915"/></g></svg>