<svg xmlns="http://www.w3.org/2000/svg" viewBox="0 0 18.65 34"><g id="Layer_2" data-name="Layer 2"><path d="M1.58,15.15l.7-.65-.36-.59-.69.72ZM2,14.62,1.66,15l-.14-.34,0-.05.39-.4Z" style="fill:#74abdc"/><polygon points="1.72 14.69 1.84 14.58 1.81 14.49 1.69 14.62 1.72 14.69" style="fill:#74abdc"/><polygon points="4.55 13.61 4.33 13.29 3.91 13.7 4.15 14.03 4.55 13.61" style="fill:#74abdc"/><path d="M.78,14.6l.77,1.05L2.24,15l.57-.55-.58-.9L3.39,12.5l-.15-.05L2.07,13.51l-.61-1.1a1.37,1.37,0,0,0-.2.13l1.23,2-.94.88L1,14.61l.81-.85-.69-1.11a3.24,3.24,0,0,0-.26.25l.6.92Z" style="fill:#74abdc"/><path d="M15.55,11.74l.3-.22-.06-.24,0-.06-.08,0,0,0h0l0,0-.06-.08-.21.16Z" style="fill:#74abdc"/><path d="M15.45,12.3l.51-.38c0-.07,0-.14-.06-.23l-.4.3-.4-.74.45-.36,0,.07a1.72,1.72,0,0,1,.12.17l0,.06h0c-.06-.25-.11-.44-.14-.59l-.84.72Z" style="fill:#74abdc"/><path d="M15.26,12.9l.82-.62c0-.06,0-.12-.07-.19l-.61.45-.83-1.24,1-.88c0-.09,0-.17,0-.25l-1.3,1.14Z" style="fill:#74abdc"/><path d="M7.12,12.51l-.26-.08-.4.31-.32-.5a1.32,1.32,0,0,0-.35,0l.58.92Z" style="fill:#74abdc"/><path d="M4.4,14.51l1.06,2.13L8,14.43l-.51-.73L8.3,13l.64,1,.6-.44L9.2,13l-.37-.07-.07,0,.4.63h0L9,13.62l-.49-.76-.26-.06-1,.88.47.77L5.56,16.26l-.92-1.81.73-.83-.62-1.15-.19.09.61,1.08Z" style="fill:#74abdc"/><path d="M10.57,8.59c0,.21,0,.42,0,.63L10.84,9Z" style="fill:#74abdc"/><path d="M.41,14l.3-.3-.2-.28a4.27,4.27,0,0,0-.2.42Z" style="fill:#74abdc"/><path d="M6.67,12.37l-.3-.09.13.22Z" style="fill:#74abdc"/><polygon points="11.58 14.06 11.37 14.23 11.46 14.37 11.69 14.19 11.58 14.06" style="fill:#74abdc"/><path d="M11.34,15l.93-.73-.5-.74-.46.42v.15l.29-.25.32.39-.43.35-.07,0-.23-.35a.64.64,0,0,1-.13-.12l-.14.13Z" style="fill:#74abdc"/><path d="M13.59,12.4l-1.15,1,.48.73L11.12,16l-.93-1.69.57-.51-.19-.19-.77.79,1.11,2.21,2.38-2.39-.54-.78.76-.75.75,1.1.59-.51-1.08-1.59-1.88,1.71.61.88-1.2,1-.6-1L11,14a.76.76,0,0,0-.08-.11l-.47.42.76,1.39,1.54-1.59-.48-.74,1.39-1.23.82,1.08h0l-.14.1Z" style="fill:#74abdc"/><path d="M11.75,9.26l-1.09,1c0,.11,0,.22,0,.33l1-.86,1,1.62-1.61,1.36-.06-.09,0,.18,0,.1L13,11.36Z" style="fill:#74abdc"/><path d="M12.53,11.34,11.66,10l-.93.81a2.17,2.17,0,0,0,0,.25l.79-.66.58,1-.73.79-.48-.85.48-.4.21.44-.15.07-.11-.24-.21.17.3.53.49-.53-.43-.72-.71.6c.06.35.12.67.18.95l.18.28Z" style="fill:#74abdc"/><polygon points="6.47 14.39 6.4 14.29 6.2 14.43 6.26 14.53 6.47 14.39" style="fill:#74abdc"/><path d="M2.73,12.22l-.15,0-.23.27-.15-.29H2.12l-.13,0,.27.5Z" style="fill:#74abdc"/><path d="M3.08,12.37l-.19-.08L2.22,13l-.4-.72a1,1,0,0,0-.22.09l.51.92Z" style="fill:#74abdc"/><path d="M6.11,15.1,7,14.45l-.46-.69-.89.69Zm.61-.67-.45.28-.07,0L6,14.38l.47-.32Z" style="fill:#74abdc"/><path d="M7.31,12.56l-1,.83-.72-1.16-.13,0-.13,0,.74,1.24-.86.9.61,1.13-.15.08L5,14.38l.85-.89-.7-1.18a1.51,1.51,0,0,0-.28.1l.67,1.23-.73.83L5.62,16l1.91-1.59-.47-.77,1-.88-.26-.06-1.12,1,.56.83-1.19.84-.61-.92,1.08-.83,1.09-.93Z" style="fill:#74abdc"/><path d="M7.08,17.66,7.85,19l1.48-1.48-.79-1.32Zm.95.92L8,18.65l-.64-1,1-1.07.71,1Z" style="fill:#74abdc"/><path d="M7.53,17.63l.46.76.86-.84-.52-.75Zm.54.31-.2-.33,0-.06.42-.38.21.41Z" style="fill:#74abdc"/><path d="M6.57,17.58,7.66,19.7,9.9,17.51l-1.24-2Zm1.35,1.6-.08,0-.06,0-.91-1.6L8.58,16l1,1.61Z" style="fill:#74abdc"/><polygon points="8.05 17.58 8.11 17.68 8.26 17.54 8.21 17.44 8.05 17.58" style="fill:#74abdc"/><path d="M6,17.56l1.47,2.82,2.93-2.87-1.54-2.7ZM7.7,19.9,7.62,20,6.37,17.54,8.69,15.2l1.42,2.34Z" style="fill:#74abdc"/><path d="M18.4,4.85c-.09-.35,0-.46-.08-.67C18.13,3.58,16.81,4,15.54,3c-.13-.11-.39-.42-.63-.46-.73-.11-.64-.07-.88-.3S14,1,13.79,1c-1.25,0-.79,1-.95,1-.87.08-1.32-.45-2.2-2-.11-.2-.36.7-.28,1a5,5,0,0,0,.48,1.17,4.28,4.28,0,0,0,.65.89c.07.09.31.23.37.39.17.47-.36,1-.42,1.16a7.81,7.81,0,0,0-.83,3.21,4.15,4.15,0,0,0,0,.49l.48.66-.47.46c0,.08,0,.16,0,.23L11.31,9l-.47-.63.14-.1.55.74-.91.92c0,.06,0,.12,0,.18L11.79,9l1.43,2.4-2.05,1.7.06.26,4-3.65.1-.08.11.12-.1.09-4.05,3.71,0,.16.44-.4,2.07-1.88,1.27,1.87-.85.72-.74-1.09-.52.52.55.78-2.65,2.65L9.6,14.35l.84-.86a1,1,0,0,0-.15-.11,2.19,2.19,0,0,0-.29-.17l.19.28-.89.89,1.53,2.74,2.94-2.93-.58-.81h0l.13-.09.67.92-3.2,3.19-1.69-3,.87-.88-.24-.36L9.43,13l.33.51-.86.64-.63-.95-.52.49.51.74L5.41,16.9,4.2,14.49,5,13.62l-.51-.9-1,1,.52.89-.64.76-.9,1L3.7,18.16,4.91,17,4,15.06,3,16.2l.76,1.21.58-.55-.52-1-.29.36.31.51-.14.09-.37-.61.52-.65.7,1.34-.82.77-.93-1.49L4,14.75,5.11,17,3.68,18.42,2.2,16.31l1-1.08.57-.67-.53-.9,1.11-1.05-.28,0h0l-1.13,1,.52.89-.62.64-1,1L3.49,19l2.08-1.87,2.94-2.8-.42-.62.14-.1.49.74-3,2.9-2.23,2L1.58,16.14,2.7,15.07l.53-.54-.52-.91,1.11-1-.24,0-1.14,1,.58.89-.67.65-.83.76L.57,14.59l.7-.79L.76,13l-.15.21.32.46-.54.55L.24,14a4.41,4.41,0,0,0-.2.78,9.16,9.16,0,0,0,.25,3A9.68,9.68,0,0,0,1,20.58c.43.81.66.75,1.22,1.8a8.2,8.2,0,0,1,.76,2A8.52,8.52,0,0,1,3.14,26a7.14,7.14,0,0,1-.08,1.8c-.15.77-.41,1.28-.27,1.37s.37-.35.84-.37.64.3.76.21-.31-.93-.51-1.8a11.1,11.1,0,0,1,.17-2.43c.13-1.28.19-1.73.38-1.76s.31.24.43.43a4.06,4.06,0,0,1,.42,1.42c.16.76.2.93.37,1.12s.25.2.34.39c.17.34,0,.56,0,.88.14.59,1.09,1,1.26.79s-.18-.62-.1-.67.5.5.56.47a3.81,3.81,0,0,0-.51-1.06c-.23-.37-.25-.37-.42-.67a8.09,8.09,0,0,1-.59-1.21c0-.1-.44-1.14-.29-1.22s.31.46.91,1a2.8,2.8,0,0,0,2.06.89c.4-.06.63-.28.88-.14s.19.3.39.7.37.46.56.81c.34.65,0,.92.28,1.62.22.54.48.49.71,1a3,3,0,0,1,.1,1.6c-.09,1.42,0,2.82.21,2.85s.19-.42.49-.48.68.57.83.5-.12-.91-.34-2.18c-.17-.92-.11-1-.34-2.35-.08-.48-.11-.57-.21-1.17s-.11-.73-.25-1.55c-.06-.34-.05-.32-.07-.41-.19-1.29-.06-1.5,0-1.6s.29-.24.42-.18,0,.68,0,1.69a11.84,11.84,0,0,0,.3,1.78c.09.45.1.43.16.77.16.81.13,1,.24,1.68a18.27,18.27,0,0,0,.46,2s.17-.72.42-.75.54.68.59.66a21.91,21.91,0,0,1-.72-2.3A10,10,0,0,1,14,28a9.44,9.44,0,0,1,.31-3.2c.26-.74.38-.59,1.2-2.2a12.18,12.18,0,0,0,.92-2.09,14.37,14.37,0,0,0,.42-2.64,13,13,0,0,0,.13-1.6,10.64,10.64,0,0,0-.47-2.75c-.15-.56-.24-.84-.33-1.11l-.92.69L14,11.28,15.52,10c0-.22-.09-.49-.2-1C15,7.48,15,7.19,15.2,6.83c.11-.18.05-.36.88-.26a3.94,3.94,0,0,0,1.9-.3c.43-.27.07-.2.39-.59.37,0,.26-.31.28-.38S18.49,5.16,18.4,4.85ZM11.84,8.58l.06.05-.1.1-.1-.13M4.13,14.28l-.44-.6L4.35,13l.41.59-.56.59Zm1,8.19L3.68,19.56l1.79-1.68.08-.08L7,20.85ZM7.4,20.66,5.8,17.58l0-.06,3.11-3,1.7,3ZM13.72,9.11l.07.15-.11.05-.08-.14ZM13.32,9l.4.64.41-.36h0l.11.12-.56.49-.5-.8Zm-.61-.17.83,1.51.92-1h0l.12.11L13.51,10.6l-1-1.8.09,0h0M15,9.61l-1.53,1.54L12,8.85l.18-.21.13.12-.1.1,1.26,2,1.38-1.39Z" style="fill:#74abdc"/><path d="M3.88,19.6l1.26,2.61,1.7-1.4L5.5,18.08Zm1.37,2-1-1.94,1-1,.08-.08,1.06,2Z" style="fill:#74abdc"/><path d="M4.48,19.73l.82,1.65.88-.73-.9-1.72Zm.95,1.17-.62-1,0-.06.45-.47.63,1.19Z" style="fill:#74abdc"/><polygon points="4.98 19.82 5.47 20.64 5.65 20.47 5.19 19.6 4.98 19.82" style="fill:#74abdc"/></g></svg>