<svg xmlns="http://www.w3.org/2000/svg" viewBox="0 0 106.08 106.08"><g id="Layer_2" data-name="Layer 2"><path d="M25.53,46.43A52.54,52.54,0,0,0,22.8,52.2l20,10.57L21.2,87.27a53.62,53.62,0,0,0,3.07,7.88L54.12,61.07Z" transform="translate(-18.96 -18.96)" style="fill:#74abdc"/><path d="M29.78,39.9c-1.09,1.44-2.12,2.93-3.07,4.48l31.18,16L25.43,97.41a54.23,54.23,0,0,0,3.4,5.38L67.76,60.62Z" transform="translate(-18.96 -18.96)" style="fill:#74abdc"/><polygon points="77.44 93.09 79.77 89.47 74.41 86.05 71.71 89.27 77.44 93.09" style="fill:#74abdc"/><path d="M77.43,63.46,99.65,74.88,120,49.48a51.79,51.79,0,0,0-2.63-4.94L96.76,69.94l-16.56-12L94.55,40,81,32.52,70.14,46.82l-29-17.94Q39,30.4,37.07,32.1L73.76,52.17,83.38,40.1l1.85,1.47L74.37,55.19l-.87-.48L35.24,33.79a51.2,51.2,0,0,0-4,4.24L71.54,60,30.27,104.71a52.86,52.86,0,0,0,4,4.57Z" transform="translate(-18.96 -18.96)" style="fill:#74abdc"/><path d="M20.39,59.8A52.77,52.77,0,0,0,19,72c0,.27,0,.54,0,.82l7.71-9.89Z" transform="translate(-18.96 -18.96)" style="fill:#74abdc"/><path d="M22,54.42c-.36,1-.67,2-1,3l9.33,4.63L19.16,76.43a52.75,52.75,0,0,0,1.31,8.11l18.6-21.08Z" transform="translate(-18.96 -18.96)" style="fill:#74abdc"/><path d="M85.52,87.08,63,110.74l24.17,12.09c1.46-.43,2.9-.94,4.31-1.49L74.92,110.11,89.27,93.52l22.78,13.22c.85-1,1.68-2,2.45-3Z" transform="translate(-18.96 -18.96)" style="fill:#74abdc"/><path d="M80.37,29.48l17.77,9.79L83.59,57.47l12.75,9.25,19.71-24.27A53,53,0,0,0,72,19c-.56,0-1.11,0-1.67,0l-6.89,8.64-8-6q-2.46.81-4.82,1.85l16.2,10.41L78.65,20.24l30.93,18.69L93,58.65l-1.81-1.51L106,39.53,79.13,23.29,67.26,37,48.11,24.65a52.69,52.69,0,0,0-4.84,2.78L69.56,43.68Z" transform="translate(-18.96 -18.96)" style="fill:#74abdc"/><path d="M77.93,66.37,36,110.92A52.84,52.84,0,0,0,65.25,124.6L40.56,111.78,80.47,73.13l24.72,12.36,18.25-26.42a50.7,50.7,0,0,0-2.35-7.15L100.28,77.86Z" transform="translate(-18.96 -18.96)" style="fill:#74abdc"/><path d="M119.65,95.3a52.7,52.7,0,0,0,5.1-17.76l-11,14Z" transform="translate(-18.96 -18.96)" style="fill:#74abdc"/><path d="M67.17,19.19a53.62,53.62,0,0,0-8.93,1.58L63,24.38Z" transform="translate(-18.96 -18.96)" style="fill:#74abdc"/><path d="M85.09,84.12l.8.46,30,17.22c1-1.42,1.87-2.88,2.7-4.4l-8.3-5.29L125,73.4c0-.46,0-.93,0-1.4a52.45,52.45,0,0,0-.92-9.77L106,88.51,80.91,76,44.55,111.2,71.19,125l.81,0a52.93,52.93,0,0,0,11.68-1.31L59.07,111.42Z" transform="translate(-18.96 -18.96)" style="fill:#74abdc"/><path d="M78.44,109.65,94,120.24a53.17,53.17,0,0,0,16.39-11.71l-20.65-12ZM102,107.72l-4.9,7.62-9.92-6.61,5.73-6.82Z" transform="translate(-18.96 -18.96)" style="fill:#74abdc"/></g></svg>