<svg xmlns="http://www.w3.org/2000/svg" viewBox="0 0 337.37 614.89"><g id="Layer_2" data-name="Layer 2"><path d="M28.6,275.22l12.67-11.83-6.59-10.64L22.25,265.84Zm8.23-9.54L30,272.05l-2.54-6.14L27,265l7-7.23Z" transform="translate(0 -1.21)" style="fill:#69c"/><polygon points="31.07 265.71 33.35 263.6 32.83 262.13 30.56 264.46 31.07 265.71" style="fill:#69c"/><polygon points="82.26 246.08 78.26 240.3 70.74 247.76 75 253.65 82.26 246.08" style="fill:#69c"/><path d="M14.16,265.27l13.8,19,12.51-11.41,10.28-10.05L40.32,246.59l21.06-19.25c-.94-.33-1.84-.69-2.71-1.05L37.35,245.51l-11-19.88A40.05,40.05,0,0,0,22.87,228l22.24,35.9-17,15.91-9.66-14.29,14.63-15.4L20.54,229.93a57,57,0,0,0-4.67,4.63l10.92,16.52Z" transform="translate(0 -1.21)" style="fill:#69c"/><path d="M281.3,213.57l5.39-4c-.36-1.34-.73-2.78-1.13-4.34-.1-.38-.19-.73-.28-1.1l-1.6.28-.73.33-.46.26,0,0a2.05,2.05,0,0,0-.16-.26l-.62-.91c-.32-.46-.68-1-1-1.42l-3.82,3Z" transform="translate(0 -1.21)" style="fill:#69c"/><path d="M279.33,223.69l9.37-6.9c-.37-1.24-.76-2.59-1.17-4.08L280.31,218,273,204.61l8.28-6.45.91,1.25s1.31,1.79,2.18,3.05c.29.42.52.77.68,1l.1.16c-1.13-4.47-1.88-7.8-2.44-10.56l-15.17,13Z" transform="translate(0 -1.21)" style="fill:#69c"/><path d="M275.9,234.51l14.83-11.19c-.36-1.1-.73-2.25-1.11-3.48l-11,8.13-15-22.42,18.48-15.82c-.3-1.62-.55-3.1-.81-4.62l-23.51,20.73Z" transform="translate(0 -1.21)" style="fill:#69c"/><path d="M128.8,227.41c-1.72-.51-3.31-1-4.78-1.45l-7.12,5.63L111,222.5a33.78,33.78,0,0,0-6.2-.37l10.45,16.68Z" transform="translate(0 -1.21)" style="fill:#69c"/><path d="M79.58,263.68l19.23,38.43,46.56-40L136.13,249,150,235.8l11.69,17.51,10.72-7.9-6.12-9.31-6.69-1.26-1.24-.24,7.18,11.31h0l-2.53,1.61-8.72-13.74c-1.64-.34-3.22-.68-4.73-1l-18,15.76,8.51,13.93-39.53,32.75L84,262.53l13.09-15L85.89,226.82c-1.16.53-2.26,1-3.45,1.45l11.08,19.67Z" transform="translate(0 -1.21)" style="fill:#69c"/><path d="M191.14,156.63c0,3.77,0,7.52.16,11.25l4.69-4.57Z" transform="translate(0 -1.21)" style="fill:#69c"/><path d="M7.47,254.1l5.39-5.49-3.61-5.14a63.1,63.1,0,0,0-3.7,7.7Z" transform="translate(0 -1.21)" style="fill:#69c"/><path d="M120.54,224.89c-2-.6-3.74-1.12-5.42-1.54l2.5,3.85Z" transform="translate(0 -1.21)" style="fill:#69c"/><polygon points="209.46 254.24 205.69 257.38 207.25 259.84 211.36 256.55 209.46 254.24" style="fill:#69c"/><path d="M205.14,272l16.8-13.23-9.11-13.35-8.32,7.56a25.1,25.1,0,0,1,.05,2.7l5.29-4.41,5.77,7-7.81,6.25-1.31,1.05L202.42,259a7.58,7.58,0,0,1-2.37-2.06l-2.63,2.38Z" transform="translate(0 -1.21)" style="fill:#69c"/><path d="M245.73,225.52,224.92,244l8.67,13.12-32.43,33.34-16.8-30.61,10.17-9.32c-1-1.1-2.14-2.23-3.38-3.37l-13.83,14.23,19.91,40,43.2-43.13-9.93-14.16,13.81-13.65,13.51,19.94,10.7-9.1-19.43-28.84-34,30.9,10.93,16-21.66,17.05-10.78-17.58,4.56-4.13c-.5-.6-1-1.25-1.6-1.92l-8.39,7.69,13.71,25,27.91-28.7L221,243.46l25.17-22.34,14.74,19.51h0l-2.4,1.81Z" transform="translate(0 -1.21)" style="fill:#69c"/><path d="M212.49,168.67l-19.68,18.46c.23,2,.47,4,.74,6l18-15.57,19,29.31-29.2,24.5-1-1.56c.25,1.15.49,2.26.72,3.29.12.54.26,1.14.4,1.78l33.79-28.19Z" transform="translate(0 -1.21)" style="fill:#69c"/><path d="M226.51,206.28l-15.65-24.19L194,196.67c.23,1.54.45,3.05.69,4.54l14.28-12,10.6,17.91-13.18,14.39-8.67-15.36,8.66-7.3,3.78,8-2.72,1.28-2.11-4.49-3.78,3.18,5.42,9.6,8.89-9.71-7.68-12.95-12.93,10.84c1.05,6.31,2.19,12.14,3.26,17.29l3.36,5Z" transform="translate(0 -1.21)" style="fill:#69c"/><polygon points="117.1 260.21 115.75 258.42 112.05 260.94 113.14 262.7 117.1 260.21" style="fill:#69c"/><path d="M49.3,222.28a24.07,24.07,0,0,0-2.71-.76l-4.13,4.85-2.65-5.31c-.45,0-.91.08-1.38.14-.84.11-1.66.26-2.47.44l4.92,9.07Z" transform="translate(0 -1.21)" style="fill:#69c"/><path d="M55.67,225c-1.12-.51-2.22-1-3.31-1.49l-12.2,12.22L33,222.48a31.23,31.23,0,0,0-4.06,1.7l9.2,16.57Z" transform="translate(0 -1.21)" style="fill:#69c"/><path d="M110.42,274.22,127,262.46l-8.28-12.39-16.1,12.41Zm11-12-8,5-1.28.8L108,261.3l8.43-5.77Z" transform="translate(0 -1.21)" style="fill:#69c"/><path d="M132.26,228.41l-17.74,14.92L101.4,222.39c-.76.09-1.54.19-2.36.33s-1.52.25-2.22.39l13.23,22.5L94.63,261.82l10.9,20.51-2.65,1.4L91,261.32l15.35-16.14L93.76,223.83a41.45,41.45,0,0,0-5.13,1.76L100.71,248,87.58,263l14,27.52,34.64-28.7-8.47-13.86L146,232c-1.64-.38-3.19-.76-4.67-1.13l-20.26,17.35,10.06,15.05-21.48,15.24L98.57,261.81l19.55-15.07,19.64-16.82C135.78,229.4,134,228.9,132.26,228.41Z" transform="translate(0 -1.21)" style="fill:#69c"/><path d="M128,320.62l13.9,24.54,26.93-26.82L154.53,294.5Zm17.3,16.63-1.34,1.3-11.6-18.86,18.77-19.44L164,319.07Z" transform="translate(0 -1.21)" style="fill:#69c"/><path d="M136.12,320.1l8.42,13.69,15.58-15.11-9.4-13.7Zm9.8,5.58-3.55-6-.63-1.06,7.71-6.92,3.66,7.52Z" transform="translate(0 -1.21)" style="fill:#69c"/><path d="M118.8,319.06l19.78,38.49L179,318l-22.41-37Zm24.43,29-1.38.53-1.2.47-16.4-29,30.89-30.4,17.46,29.12Z" transform="translate(0 -1.21)" style="fill:#69c"/><polygon points="145.58 317.99 146.64 319.79 149.42 317.28 148.49 315.37 145.58 317.99" style="fill:#69c"/><path d="M108.1,318.71l26.59,51.09,53-51.95L159.9,269.09Zm31.13,42.41-1.45,1.42-22.64-44.05,42-42.4,25.62,42.36Z" transform="translate(0 -1.21)" style="fill:#69c"/><path d="M332.77,88.86c-1.7-6.34-.37-8.3-1.53-12-3.41-10.91-27.32-3.32-50.12-22.32C278.77,52.59,274,47,269.7,46.31c-13.23-2.14-11.62-1.39-15.95-5.41-6.54-6.06-.23-20.93-4.31-21-22.69-.26-14.3,17.1-17.26,17.36-15.64,1.35-23.92-8.17-39.68-35.55-2.12-3.67-6.65,12.76-5.11,17.79,3.73,12.19,6.69,17.92,8.6,21.08,7.25,12,4.65,7,11.8,16.07,1.29,1.64,5.6,4.3,6.61,7,3.15,8.55-6.46,19.08-7.5,21.05-10.68,20.17-13.3,38.45-15.08,58.12-.26,2.92-.44,5.86-.55,8.8l8.67,12-8.45,8.24c.09,1.43.18,2.85.28,4.27l12.8-12.94-8.47-11.39,2.41-1.8,10,13.46L192.1,180.1c.09,1.1.2,2.2.31,3.29l20.75-19.46L239,207.36l-36.94,30.82c.31,1.44.63,3,.93,4.56l71.9-65.87,1.77-1.54,2,2.26-1.74,1.52-73.26,67.11c.17,1,.33,2,.46,3l8-7.24,37.56-34.1,22.87,33.94-15.3,13-13.36-19.72-9.44,9.33,9.92,14.16L196.4,306.44,173.68,260.8l15.19-15.61c-.86-.69-1.76-1.37-2.71-2a36.19,36.19,0,0,0-5.3-3l3.38,5.08-16,16.08,27.6,49.6,53.24-53.1-10.61-14.52h0l2.42-1.77L253,258.11l-57.87,57.71-30.63-55,15.85-16L176,238.31c-1.74-.53-3.58-1-5.58-1.39l6.06,9.22L161,257.59l-11.46-17.16-9.45,9,9.32,13.25L97.85,306.89,76,263.21l13.87-15.66L80.65,231.2,62,248.8l9.4,16L59.82,278.58,43.58,296.35l23.34,33.37,21.82-21.54L71.82,273.53,54.88,294.1,68.59,316l10.48-9.88-9.43-18.09-5.26,6.51,5.69,9.24-2.55,1.58-6.81-11.06,9.47-11.71,12.6,24.16L68,320.71l-16.8-26.85L72.47,268,92.38,308.8,66.49,334.35,39.74,296.1l17.83-19.5,10.2-12.08-9.54-16.26,20.08-19a30.44,30.44,0,0,1-5,.25h0L52.76,248.16l9.4,16.22L50.92,275.94,32.33,293.67,63.2,345.29l37.6-33.76,53-50.66-7.54-11.25,2.5-1.67,8.94,13.34-54.88,52.44L62.49,350l-34-56.8,20.29-19.35,9.62-9.89L49,247.57l20.2-18.35a36.6,36.6,0,0,1-4.45-.86L44.21,247.1l10.38,16.17-12.06,11.8-15,13.71-17.19-23.7L23,250.81l-9.19-13.92A37.15,37.15,0,0,0,11,240.68l5.78,8.25L7,258.86l-2.75-4.2a88.48,88.48,0,0,0-3.5,14C-.07,273.53-1.63,285,5.3,323.57,10,349.73,12.47,363,18,373.44c7.77,14.53,12,13.51,22.1,32.44C49.8,424,53.05,438.3,53.87,442.11c2.35,11,2.64,19.53,3,28.44.42,12.23.73,21.09-1.44,32.49-2.67,14-7.42,23.16-4.89,24.72,2.33,1.45,6.65-6.21,15.21-6.56,7.54-.31,11.49,5.33,13.64,3.79,3.38-2.42-5.55-16.9-9.09-32.58-.77-3.4-.88-6.27,3-43.94,2.39-23.1,3.44-31.25,6.82-31.82,2.72-.45,5.64,4.25,7.78,7.69,3.54,5.7,4.31,10.08,7.58,25.75,2.87,13.74,3.61,16.8,6.64,20.33,2.73,3.19,4.58,3.56,6.24,6.95,3,6.17-.57,10.14.76,15.91,2.47,10.75,19.57,17.52,22.72,14.39,2.47-2.44-3.32-11.27-1.72-12.23s9,9.15,10.06,8.44-4.71-11.3-9.31-19c-4-6.81-4.41-6.71-7.57-12.12a150.78,150.78,0,0,1-10.61-22c-.63-1.67-7.89-20.65-5.3-22,1.83-.94,5.74,8.34,16.53,17.83,6.15,5.41,21.27,18.71,37.24,16.14,7.26-1.16,11.31-5.06,15.89-2.51,3.44,1.91,3.47,5.41,7.07,12.58,4.4,8.76,6.76,8.33,10.09,14.68,6.18,11.81-.19,16.66,5.06,29.26,4.06,9.75,8.71,8.85,13,18.26,3.93,8.67,2.63,15.28,1.73,28.91-1.69,25.76-.25,51.08,3.72,51.69,2.28.35,3.45-7.74,8.85-8.71,6.82-1.21,12.36,10.33,15.15,9.09,3.12-1.38-2.19-16.53-6.27-39.5-3-16.61-1.88-18.25-6.06-42.42-1.53-8.82-2-10.43-3.79-21.21-1.44-8.63-2.08-13.19-4.54-28-1-6.11-1-5.75-1.23-7.39-3.54-23.33-1.05-27.27.47-29,1.81-2,5.33-4.4,7.56-3.34,4,1.87-.63,12.42.26,30.61.37,7.63,2,15.85,5.38,32.3,1.64,8.08,1.8,7.64,3,13.85,2.86,14.7,2.17,17.56,4.24,30.37a317.45,317.45,0,0,0,8.36,36.35s3.12-13,7.55-13.62c4.68-.7,9.74,12.43,10.61,12,1.08-.48-8.57-19.44-12.88-41.59-2.18-11.17-2.13-19.81-2.05-37.11.14-28.38.21-42.57,5.57-57.92,4.68-13.4,6.92-10.58,21.66-39.7,8.81-17.41,13.21-26.11,16.7-37.89,3.77-12.71,5.06-24.36,7.64-47.67,1.65-14.82,2.47-22.23,2.39-29.06-.19-16.85-3.29-29.14-8.6-49.63-2.62-10.12-4.3-15.21-5.93-20.13l-16.61,12.54-21.28-33.59,26.82-23.65c-.7-3.93-1.67-8.84-3.62-17-6.71-28.17-6-33.29-2.11-39.81,1.94-3.23.85-6.56,15.81-4.76,8,1,26.73-.51,34.38-5.36,7.86-5,1.28-3.58,7.15-10.72,6.67-.62,4.61-5.53,5-6.9C338.05,94.22,334.3,94.56,332.77,88.86ZM214.2,156.35l1,1-1.78,1.79-1.82-2.36M74.68,259.53,66.8,248.65l11.89-11.8,7.44,10.76L75.92,258.23ZM92,407.64,66.59,355l32.26-30.46,1.48-1.39,27.05,55.14Zm41.94-32.86-29-55.68-.52-1,56.2-53.84,30.82,54.11ZM248.06,165.94l1.38,2.67-2,1L246,167Zm-7.14-2.35,7.23,11.53,7.36-6.51h0l2,2.25-10,8.85-9.11-14.53Zm-11-3.07L245,187.94l16.62-17.29h0l2.16,2.08L244.29,193l-17.88-32.53,1.64-.6.55-.2m42,15.3L242.9,202.82l-26-41.62,3.27-3.65,2.24,2-1.77,2,22.8,36.5,25-25.2Z" transform="translate(0 -1.21)" style="fill:#69c"/><path d="M70.24,355.7,93,402.89l30.64-25.38L99.43,328.14Zm24.68,36.92L77.4,357.51,94.79,340l1.45-1.45,19.22,36.9Z" transform="translate(0 -1.21)" style="fill:#69c"/><path d="M81.05,358.09l14.86,29.8,15.77-13.19L95.47,343.57Zm17.08,21.12L87,360.12l-.57-1,8.23-8.51,11.29,21.48Z" transform="translate(0 -1.21)" style="fill:#69c"/><polygon points="90.12 358.38 98.85 373.28 102.17 370.25 93.89 354.49 90.12 358.38" style="fill:#69c"/></g></svg>